<svg width="80" height="15" viewBox="0 0 80 15" fill="none" xmlns="http://www.w3.org/2000/svg">
<g clip-path="url(#clip0)">
<path d="M79.4939 0.533234H0.493713V14.5335H79.4939V0.533234Z" fill="white" stroke="black"/>
<path d="M78.0126 1.93326H1.97498V13.1335H78.0126V1.93326Z" fill="black"/>
<path d="M1.97491 1.94528V13.1455H22.0556C23.3479 11.5118 24.2199 9.61325 24.2199 7.54539C24.2199 5.49133 23.3629 3.57197 22.0864 1.94528H1.97491Z" fill="#ABB1AA"/>
<path d="M19.2898 7.53327C19.2922 11.0251 16.2988 13.8572 12.6047 13.8595C8.91047 13.8617 5.91357 11.0328 5.91142 7.54094C5.91142 7.53845 5.91142 7.53597 5.91142 7.53327C5.90928 4.04143 8.90238 1.2093 12.5966 1.20726C16.2912 1.20503 19.2877 4.03402 19.2898 7.52587C19.2898 7.52809 19.2898 7.53079 19.2898 7.53327Z" fill="white"/>
<path d="M18.0383 2.38359C19.5217 3.78559 20.2634 5.50261 20.2634 7.53328C20.2634 9.56438 19.5345 11.263 18.0766 12.6289C16.5295 14.0676 14.701 14.7867 12.5911 14.7867C10.5066 14.7867 8.70977 14.0735 7.20095 12.647C5.6919 11.2206 4.93748 9.51624 4.93748 7.53328C4.93748 5.55075 5.6919 3.83418 7.20095 2.38359C8.67144 0.981145 10.4683 0.280029 12.5911 0.280029C14.7396 0.280029 16.555 0.981136 18.0383 2.38359ZM8.19961 3.32681C6.94552 4.52406 6.3187 5.9265 6.3187 7.53528C6.3187 9.14362 6.93934 10.5342 8.18033 11.7069C9.42156 12.88 10.8992 13.4664 12.6137 13.4664C14.3282 13.4664 15.8184 12.8742 17.0851 11.6891C18.2878 10.5884 18.8894 9.20438 18.8894 7.53528C18.8894 5.8788 18.278 4.47278 17.0561 3.31783C15.8344 2.1631 14.3537 1.58549 12.6137 1.58549C10.8737 1.5855 9.40205 2.16602 8.19961 3.32681ZM11.4998 6.82767C11.3082 6.43278 11.0213 6.23522 10.6388 6.23522C9.96243 6.23522 9.62438 6.66565 9.62438 7.52608C9.62438 8.38669 9.96243 8.8167 10.6388 8.8167C11.0854 8.8167 11.4044 8.60723 11.5958 8.18737L12.5332 8.6592C12.0864 9.40959 11.416 9.78487 10.5221 9.78487C9.83271 9.78487 9.28042 9.58508 8.86571 9.18592C8.4503 8.78632 8.24318 8.23551 8.24318 7.53328C8.24318 6.8434 8.45695 6.29574 8.88475 5.89008C9.31254 5.48439 9.84531 5.28164 10.484 5.28164C11.4289 5.28164 12.1054 5.63356 12.5144 6.33669L11.4998 6.82767ZM15.9103 6.82767C15.7184 6.43278 15.4373 6.23522 15.0666 6.23522C14.3767 6.23522 14.0315 6.66565 14.0315 7.52608C14.0315 8.38669 14.3767 8.8167 15.0666 8.8167C15.514 8.8167 15.8272 8.60723 16.006 8.18737L16.9644 8.6592C16.5183 9.40959 15.8489 9.78487 14.9567 9.78487C14.2682 9.78487 13.7171 9.58508 13.3026 9.18592C12.8889 8.78632 12.6815 8.23551 12.6815 7.53328C12.6815 6.8434 12.892 6.29574 13.3126 5.89008C13.733 5.48439 14.2682 5.28164 14.9186 5.28164C15.8618 5.28164 16.5374 5.63356 16.9449 6.33669L15.9103 6.82767Z" fill="black"/>
<path d="M29.052 6.90134C29.2944 6.90134 29.4782 6.85131 29.6034 6.75129C29.7286 6.65126 29.7912 6.50374 29.7912 6.30868C29.7912 6.11614 29.7286 5.96986 29.6034 5.86983C29.4782 5.76731 29.2944 5.71606 29.052 5.71605H28.2009V6.90134H29.052ZM29.1039 9.35068C29.4129 9.35068 29.6447 9.2894 29.7992 9.16687C29.9564 9.04434 30.035 8.8593 30.035 8.61172C30.035 8.36917 29.9577 8.18789 29.8032 8.06786C29.6487 7.94533 29.4156 7.88405 29.1039 7.88405H28.2009V9.35068H29.1039ZM30.5344 7.33643C30.8647 7.42645 31.1205 7.59274 31.3016 7.83529C31.4827 8.07786 31.5733 8.37544 31.5733 8.72802C31.5733 9.26816 31.3788 9.67075 30.9899 9.93581C30.601 10.2009 30.0096 10.3334 29.2158 10.3334H26.6625V4.73331H28.9721C29.8005 4.73331 30.3999 4.85082 30.7702 5.08588C31.1431 5.32093 31.3296 5.69728 31.3296 6.21491C31.3296 6.48748 31.2616 6.72004 31.1258 6.91259C30.9899 7.10263 30.7928 7.2439 30.5344 7.33643ZM31.4395 4.73331H33.1217L34.4803 6.72879L35.8388 4.73331H37.5251L35.2515 7.97409V10.3334H33.7131V7.97409L31.4395 4.73331ZM36.6939 7.57649H39.2033V8.66801H36.6939V7.57649ZM44.5576 4.90959V6.09488C44.2299 5.95734 43.9103 5.85358 43.5986 5.78356C43.2869 5.71354 42.9926 5.67854 42.7156 5.67854C42.3479 5.67854 42.0762 5.72605 41.9004 5.82107C41.7246 5.9161 41.6367 6.06363 41.6367 6.26368C41.6367 6.41372 41.6953 6.53124 41.8125 6.61625C41.9324 6.69877 42.1481 6.77006 42.4598 6.83007L43.1151 6.95383C43.7784 7.07888 44.2499 7.26893 44.5296 7.52399C44.8093 7.77906 44.9492 8.14162 44.9492 8.61172C44.9492 9.22939 44.7534 9.6895 44.3618 9.99207C43.9729 10.2921 43.3775 10.4422 42.5757 10.4422C42.1974 10.4422 41.8178 10.4084 41.4369 10.3409C41.056 10.2734 40.675 10.1734 40.2941 10.0408V8.82179C40.675 9.01184 41.0427 9.15563 41.397 9.25315C41.7539 9.34817 42.0975 9.39568 42.4278 9.39568C42.7635 9.39568 43.0206 9.34317 43.199 9.23814C43.3775 9.13312 43.4667 8.98308 43.4667 8.78804C43.4667 8.613 43.4055 8.47797 43.2829 8.38294C43.1631 8.28793 42.922 8.20289 42.5597 8.12787L41.9644 8.00408C41.3677 7.88405 40.9308 7.69276 40.6537 7.43019C40.3794 7.16763 40.2422 6.81381 40.2422 6.36869C40.2422 5.81107 40.4339 5.38223 40.8176 5.08215C41.2011 4.78207 41.7526 4.63202 42.4718 4.63202C42.7994 4.63202 43.1364 4.65577 43.4827 4.70329C43.829 4.7483 44.1873 4.81708 44.5576 4.90959ZM49.9239 9.31316H47.5184L47.1388 10.3334H45.5925L47.8021 4.73331H49.6362L51.8458 10.3334H50.2995L49.9239 9.31316ZM47.902 8.27416H49.5363L48.7212 6.04612L47.902 8.27416Z" fill="white"/>
</g>
<defs>
<clipPath id="clip0">
<rect width="80" height="15" fill="white"/>
</clipPath>
</defs>
</svg>
