<svg width="40" height="39" viewBox="0 0 40 39" fill="none" xmlns="http://www.w3.org/2000/svg">
<path d="M19.9544 5.29829e-07C10.1682 -0.0012565 1.82601 7.09597 0.259174 16.7559C-1.30766 26.4158 4.36356 35.786 13.6484 38.878C14.6484 39.058 15.0064 38.444 15.0064 37.916C15.0064 37.442 14.9904 36.186 14.9844 34.516C9.43437 35.716 8.26237 31.84 8.26237 31.84C7.89701 30.6339 7.11153 29.5987 6.04838 28.922C4.24838 27.684 6.18638 27.712 6.18638 27.712C7.46773 27.8877 8.59548 28.6469 9.24038 29.768C9.78624 30.7605 10.7059 31.4939 11.795 31.8052C12.8841 32.1166 14.0524 31.98 15.0404 31.426C15.1332 30.414 15.5835 29.4682 16.3104 28.758C11.8824 28.256 7.22638 26.544 7.22638 18.898C7.2018 16.9204 7.93617 15.0086 9.27838 13.556C8.67108 11.8346 8.7426 9.94651 9.47838 8.276C9.47838 8.276 11.1524 7.738 14.9624 10.318C18.2301 9.42201 21.6787 9.42201 24.9464 10.318C28.7584 7.736 30.4304 8.276 30.4304 8.276C31.1696 9.94572 31.2411 11.8351 30.6304 13.556C31.9775 15.0085 32.7113 16.9253 32.6784 18.906C32.6784 26.572 28.0184 28.256 23.5744 28.75C24.533 29.7301 25.0247 31.0747 24.9244 32.442C24.9244 35.11 24.9004 37.262 24.9004 37.916C24.9004 38.45 25.2564 39.07 26.2744 38.874C35.5553 35.7767 41.2205 26.406 39.6504 16.7486C38.0804 7.09131 29.7385 -0.00223835 19.9544 5.29829e-07Z" fill="#F9FAFB"/>
</svg>
