<svg width="14" height="14" viewBox="0 0 14 14" fill="none" xmlns="http://www.w3.org/2000/svg">
<path d="M6.66667 13.3333C2.98477 13.3333 0 10.3486 0 6.66667C0 2.98477 2.98477 0 6.66667 0C10.3486 0 13.3333 2.98477 13.3333 6.66667C13.3293 10.3469 10.3469 13.3293 6.66667 13.3333ZM1.33333 6.78133C1.36488 9.71549 3.76074 12.073 6.69503 12.0573C9.62931 12.0415 11.9997 9.65833 11.9997 6.724C11.9997 3.78967 9.62931 1.40652 6.69503 1.39067C3.76074 1.37497 1.36488 3.73251 1.33333 6.66667V6.78133ZM8 10H6V7.33333H5.33333V6H7.33333V8.66667H8V10ZM7.33333 4.66667H6V3.33333H7.33333V4.66667Z" fill="#28B7FF"/>
</svg>
