<svg width="36" height="36" viewBox="0 0 36 36" fill="none" xmlns="http://www.w3.org/2000/svg">
<path d="M20 36H12V12H20V16C21.7053 13.8305 24.2913 12.5371 27.05 12.474C32.0112 12.5015 36.0144 16.5388 36 21.5V36H28V22.5C27.6801 20.2653 25.7635 18.6072 23.506 18.612C22.5186 18.6432 21.5865 19.0756 20.9249 19.8092C20.2633 20.5429 19.9293 21.5146 20 22.5V36ZM8 36H0V12H8V36ZM4 8C1.79086 8 0 6.20914 0 4C0 1.79086 1.79086 0 4 0C6.20914 0 8 1.79086 8 4C8 5.06087 7.57857 6.07828 6.82843 6.82843C6.07828 7.57857 5.06087 8 4 8Z" fill="#F9FAFB"/>
</svg>
