<svg width="17" height="17" viewBox="0 0 17 17" fill="none" xmlns="http://www.w3.org/2000/svg">
<path d="M15.1916 16.6076L9.47663 10.8916C6.9343 12.6991 3.43107 12.257 1.4175 9.87456C-0.596063 7.49214 -0.448212 3.96422 1.75763 1.75863C3.96289 -0.447923 7.49115 -0.596414 9.87402 1.41705C12.2569 3.4305 12.6992 6.93408 10.8916 9.47663L16.6066 15.1926L15.1926 16.6066L15.1916 16.6076ZM5.99963 2.00062C4.10333 2.00019 2.46732 3.33131 2.0821 5.18807C1.69689 7.04482 2.66834 8.9169 4.40831 9.67087C6.14827 10.4248 8.17853 9.85346 9.26987 8.30268C10.3612 6.7519 10.2137 4.64795 8.91663 3.26463L9.52163 3.86463L8.83963 3.18463L8.82763 3.17263C8.07942 2.41981 7.06102 1.99776 5.99963 2.00062Z" fill="#F9FAFB"/>
</svg>
